<svg fill="none" xmlns="http://www.w3.org/2000/svg" viewBox="0 0 24 24"><path fill-rule="evenodd" clip-rule="evenodd" d="M19.8 11.3c.4.6.7 1.3.7 2v.2c0 1-.3 2-1 2.8-.8.9-1.9 1.4-3 1.5-3 .4-6 .4-9 0a4.8 4.8 0 01-3-1.5 4 4 0 01-1-2.7v-.2c0-.7.3-1.4.7-2l.1-.2c.4-.5.8-1 .9-1.7V7.7a.8.8 0 011.5.1V9.7c-.2 1-.7 1.8-1.3 2.5L5 13.4v.2c0 .7.2 1.3.6 1.7.6.6 1.3 1 2.1 1 2.9.3 5.7.3 8.6 0 .8 0 1.6-.4 2.1-1 .4-.5.6-1 .6-1.7v-.2c0-.4-.2-.8-.4-1.2a5.3 5.3 0 01-1.3-2.6V7.8c-.3-2.6-3-4.3-5.3-4.3-1 0-2 .3-2.8.7-.2.2-.5.2-.8 0a.8.8 0 010-1.3C9.6 2.3 10.8 2 12 2c3 0 6.5 2.2 6.9 5.6v1.9a3.8 3.8 0 001 1.8zm-7.5 9.1c.5 0 1-.3 1.3-.7.2-.4.7-.4 1-.2.4.3.4.8.1 1.1-.6.9-1.7 1.4-2.7 1.4-1.1 0-2.2-.5-2.8-1.4a.8.8 0 010-1c.4-.3.9-.3 1.2 0 0 .2.2.3.4.5.4.3 1 .4 1.5.3z" fill="#fff"/></svg>